<svg xmlns="http://www.w3.org/2000/svg" viewBox="0 0 700 400" width="700" height="400" font-family="ui-sans-serif, system-ui, sans-serif">
  <title>Peak heap during render — renderFlow vs streamFlow</title>
  <rect x="0" y="0" width="700" height="400" fill="#fafafa"/>
  <text x="350" y="22" text-anchor="middle" font-size="15" font-weight="600" fill="#111">Peak heap during render (absolute)</text>
  <text x="350" y="390" text-anchor="middle" font-size="11" fill="#666">Document pages (50 lines of text each)</text>
  <text x="22" y="190" text-anchor="middle" font-size="11" fill="#666" transform="rotate(-90 22 190)">Peak heap used (MB)</text>

  <!-- y-axis grid + labels -->
  <line x1="70" y1="340" x2="670" y2="340" stroke="#e5e5e5" stroke-width="1"/>
  <text x="62" y="344" text-anchor="end" font-size="10" fill="#555">0 MB</text>
  <line x1="70" y1="265" x2="670" y2="265" stroke="#e5e5e5" stroke-width="1"/>
  <text x="62" y="269" text-anchor="end" font-size="10" fill="#555">46 MB</text>
  <line x1="70" y1="190" x2="670" y2="190" stroke="#e5e5e5" stroke-width="1"/>
  <text x="62" y="194" text-anchor="end" font-size="10" fill="#555">92 MB</text>
  <line x1="70" y1="115" x2="670" y2="115" stroke="#e5e5e5" stroke-width="1"/>
  <text x="62" y="119" text-anchor="end" font-size="10" fill="#555">139 MB</text>
  <line x1="70" y1="40" x2="670" y2="40" stroke="#e5e5e5" stroke-width="1"/>
  <text x="62" y="44" text-anchor="end" font-size="10" fill="#555">185 MB</text>

  <!-- x-axis labels -->
  <line x1="76" y1="340" x2="76" y2="344" stroke="#666"/>
  <text x="76" y="358" text-anchor="middle" font-size="10" fill="#555">10</text>
  <line x1="100" y1="340" x2="100" y2="344" stroke="#666"/>
  <text x="100" y="358" text-anchor="middle" font-size="10" fill="#555">50</text>
  <line x1="130" y1="340" x2="130" y2="344" stroke="#666"/>
  <text x="130" y="358" text-anchor="middle" font-size="10" fill="#555">100</text>
  <line x1="220" y1="340" x2="220" y2="344" stroke="#666"/>
  <text x="220" y="358" text-anchor="middle" font-size="10" fill="#555">250</text>
  <line x1="370" y1="340" x2="370" y2="344" stroke="#666"/>
  <text x="370" y="358" text-anchor="middle" font-size="10" fill="#555">500</text>
  <line x1="670" y1="340" x2="670" y2="344" stroke="#666"/>
  <text x="670" y="358" text-anchor="middle" font-size="10" fill="#555">1000</text>

  <!-- axes -->
  <line x1="70" y1="340" x2="670" y2="340" stroke="#333" stroke-width="1"/>
  <line x1="70" y1="40" x2="70" y2="340" stroke="#333" stroke-width="1"/>

  <!-- lines -->
  <polyline points="76,320.0893093061354 100,295.2433546477831 130,293.1300533742007 220,254.63087248322148 370,205.64445383924325 670,40" fill="none" stroke="#c1272d" stroke-width="2.5" />
  <circle cx="76" cy="320.0893093061354" r="4" fill="#c1272d" /><circle cx="100" cy="295.2433546477831" r="4" fill="#c1272d" /><circle cx="130" cy="293.1300533742007" r="4" fill="#c1272d" /><circle cx="220" cy="254.63087248322148" r="4" fill="#c1272d" /><circle cx="370" cy="205.64445383924325" r="4" fill="#c1272d" /><circle cx="670" cy="40" r="4" fill="#c1272d" />
  <polyline points="76,318.467473445014 100,315.73587697510965 130,313.281720657401 220,307.7852348993289 370,300.80642604238227 670,282.38281456428683" fill="none" stroke="#1f7a4d" stroke-width="2.5" />
  <circle cx="76" cy="318.467473445014" r="4" fill="#1f7a4d" /><circle cx="100" cy="315.73587697510965" r="4" fill="#1f7a4d" /><circle cx="130" cy="313.281720657401" r="4" fill="#1f7a4d" /><circle cx="220" cy="307.7852348993289" r="4" fill="#1f7a4d" /><circle cx="370" cy="300.80642604238227" r="4" fill="#1f7a4d" /><circle cx="670" cy="282.38281456428683" r="4" fill="#1f7a4d" />

  <!-- legend -->
  <g transform="translate(90, 50)">
    <rect x="0" y="0" width="160" height="48" fill="white" stroke="#ccc" rx="4"/>
    <circle cx="14" cy="16" r="5" fill="#c1272d"/>
    <text x="26" y="20" font-size="11" fill="#333">renderFlow</text>
    <circle cx="14" cy="36" r="5" fill="#1f7a4d"/>
    <text x="26" y="40" font-size="11" fill="#333">streamFlow</text>
  </g>
</svg>
